# xmcd
#
# Track frame offsets: 
#        150
#        26230
#        72829
#        97826
#        135616
#        159231
#        178711
#        210654
#        234648
#        256572
#
# Disc length: 3650 seconds
#
# Revision: 0
# Processed by: cddbd v1.5.2PL0 Copyright (c) Steve Scherf et al.
# Submitted via: ExactAudioCopy v0.95b3
#
DISCID=7c0e400a
DTITLE=Kenn Lending Blues Band - Still Payin' Dues
DYEAR=2005
DGENRE=Blues
TTITLE0=Still Payin' Dues
TTITLE1=Early One Morning
TTITLE2=Help Somebody
TTITLE3=Walk Down
TTITLE4=Cold Winds
TTITLE5=Desert Island
TTITLE6=Ease Me Baby
TTITLE7=Love Me Or Leave Me
TTITLE8=Waitin' On You
TTITLE9=Ridin' Convertible
EXTD=
EXTT0=
EXTT1=
EXTT2=
EXTT3=
EXTT4=
EXTT5=
EXTT6=
EXTT7=
EXTT8=
EXTT9=
PLAYORDER=
